HIERARCHY
ROOT Hips
{
	OFFSET -0.001795 -0.223333 0.028219
	CHANNELS 6 Xposition Yposition Zposition Zrotation Yrotation Xrotation 
	JOINT LeftUpLeg
	{
		OFFSET 0.069520 -0.091406 -0.006815
		CHANNELS 3 Zrotation Yrotation Xrotation
		JOINT LeftLeg
		{
			OFFSET 0.034277 -0.375199 -0.004496
			CHANNELS 3 Zrotation Yrotation Xrotation
			JOINT LeftFoot
			{
				OFFSET -0.013596 -0.397961 -0.043693
				CHANNELS 3 Zrotation Yrotation Xrotation
				JOINT LeftToe
				{
					OFFSET 0.026358 -0.055791 0.119288
					CHANNELS 3 Zrotation Yrotation Xrotation
					End Site
					{
						OFFSET 0.000000 0.000000 0.000000
					}
				}
			}
		}
	}
	JOINT RightUpLeg
	{
		OFFSET -0.067670 -0.090522 -0.004320
		CHANNELS 3 Zrotation Yrotation Xrotation
		JOINT RightLeg
		{
			OFFSET -0.038290 -0.382569 -0.008850
			CHANNELS 3 Zrotation Yrotation Xrotation
			JOINT RightFoot
			{
				OFFSET 0.015774 -0.398415 -0.042312
				CHANNELS 3 Zrotation Yrotation Xrotation
				JOINT RightToe
				{
					OFFSET -0.025372 -0.048144 0.123348
					CHANNELS 3 Zrotation Yrotation Xrotation
					End Site
					{
						OFFSET 0.000000 0.000000 0.000000
					}
				}
			}
		}
	}
	JOINT Spine
	{
		OFFSET -0.002533 0.108963 -0.026696
		CHANNELS 3 Zrotation Yrotation Xrotation
		JOINT Spine1
		{
			OFFSET 0.005487 0.135180 0.001092
			CHANNELS 3 Zrotation Yrotation Xrotation
			JOINT Spine2
			{
				OFFSET 0.001457 0.052922 0.025425
				CHANNELS 3 Zrotation Yrotation Xrotation
				JOINT Neck
				{
					OFFSET -0.002778 0.213870 -0.042857
					CHANNELS 3 Zrotation Yrotation Xrotation
					JOINT Head
					{
						OFFSET 0.005152 0.064970 0.051349
						CHANNELS 3 Zrotation Yrotation Xrotation
						End Site
						{
							OFFSET 0.000000 0.000000 0.000000
						}
					}
				}
				JOINT LeftShoulder
				{
					OFFSET 0.078845 0.121749 -0.034090
					CHANNELS 3 Zrotation Yrotation Xrotation
					JOINT LeftArm
					{
						OFFSET 0.090977 0.030469 -0.008868
						CHANNELS 3 Zrotation Yrotation Xrotation
						JOINT LeftForeArm
						{
							OFFSET 0.259612 -0.012772 -0.027456
							CHANNELS 3 Zrotation Yrotation Xrotation
							JOINT LeftHand
							{
								OFFSET 0.249234 0.008986 -0.001171
								CHANNELS 3 Zrotation Yrotation Xrotation
								End Site
								{
									OFFSET 0.000000 0.000000 0.000000
								}
							}
						}
					}
				}
				JOINT RightShoulder
				{
					OFFSET -0.081759 0.118833 -0.038615
					CHANNELS 3 Zrotation Yrotation Xrotation
					JOINT RightArm
					{
						OFFSET -0.096012 0.032551 -0.009143
						CHANNELS 3 Zrotation Yrotation Xrotation
						JOINT RightForeArm
						{
							OFFSET -0.253742 -0.013329 -0.021401
							CHANNELS 3 Zrotation Yrotation Xrotation
							JOINT RightHand
							{
								OFFSET -0.255298 0.007772 -0.005559
								CHANNELS 3 Zrotation Yrotation Xrotation
								End Site
								{
									OFFSET 0.000000 0.000000 0.000000
								}
							}
						}
					}
				}
			}
		}
	}
}
MOTION
Frames: 14
Frame Time: 0.050000
0.000000 0.840707 0.000000 12.343977 35.456050 35.440317 -3.146786 -14.743568 -48.468383 -20.578523 -0.349800 58.871569 11.583205 25.548470 -4.092255 0.000000 0.000000 0.000000 -6.423881 -8.032375 -46.526256 -2.445542 -3.658804 42.786459 -12.300122 -34.911743 -12.294722 0.000000 0.000000 0.000000 -12.358897 -17.299913 83.605243 1.345871 1.098490 -36.735233 12.539745 16.946995 22.723331 -10.478969 7.980131 -38.474615 0.000000 0.000000 0.000000 -18.242109 -18.518773 1.977309 -42.142937 -33.647578 6.052794 21.588617 -56.827403 -12.150670 0.000000 0.000000 0.000000 -15.314345 11.349318 1.556651 39.356877 48.763111 17.005760 -41.456820 34.659873 -8.245220 0.000000 0.000000 0.000000 
0.048393 0.841429 0.055460 13.843887 34.117811 37.739688 5.320582 -15.657393 -59.379299 -27.993447 6.027508 53.866367 12.202473 29.174536 -18.131546 0.000000 0.000000 0.000000 -7.776620 -7.119683 -42.860524 -6.180914 -1.871933 42.596948 -11.811771 -31.912734 -8.673008 0.000000 0.000000 0.000000 -12.060594 -16.534616 81.895435 -2.878130 1.500468 -33.543442 12.483042 17.954922 22.744795 -5.711498 6.552106 -40.038760 0.000000 0.000000 0.000000 -7.746716 -20.651126 4.597532 -41.858644 -38.344853 5.864661 20.602523 -49.951108 -10.229824 0.000000 0.000000 0.000000 -24.876752 5.079723 -1.920013 42.113217 48.346283 20.430426 -39.845275 35.772325 -7.864375 0.000000 0.000000 0.000000 
0.105106 0.843100 0.118629 9.837892 31.034045 35.992813 8.988316 -14.427392 -64.354055 -20.724761 3.959556 51.488380 10.516123 22.905481 -20.254278 0.000000 0.000000 0.000000 -7.827568 -4.056916 -35.361341 -1.893795 -2.620142 34.708216 -17.118548 -40.670799 -0.522098 0.000000 0.000000 0.000000 -14.779461 -12.141150 83.097005 -2.480344 1.477418 -31.679697 13.760827 23.577543 23.045632 -2.220798 5.909861 -39.465591 0.000000 0.000000 0.000000 -1.766363 -22.150086 5.273041 -44.995821 -39.760199 5.655711 29.878701 -52.798355 -17.756097 0.000000 0.000000 0.000000 -22.897328 3.257369 -2.717198 39.914524 46.187703 19.242290 -45.503045 36.380981 -8.536824 0.000000 0.000000 0.000000 
0.168850 0.848202 0.190439 6.940992 30.549810 35.742962 10.038208 -12.817537 -62.494001 -17.550500 2.383441 40.822671 10.290482 21.676384 -16.743793 0.000000 0.000000 0.000000 -7.719216 -3.630699 -34.732471 -1.341872 -3.311324 37.228351 -20.415269 -33.064917 23.901790 0.000000 0.000000 0.000000 -18.720970 -8.173008 83.906713 1.004832 0.986063 -31.453689 16.980356 25.905900 25.470126 0.312662 5.397759 -38.191686 0.000000 0.000000 0.000000 -3.404109 -22.497252 4.672615 -35.944099 -36.498159 3.252909 49.996485 -52.945983 -30.704901 0.000000 0.000000 0.000000 -23.289965 5.505973 -2.595489 42.085762 48.247215 22.338453 -47.755009 33.162729 -8.355683 0.000000 0.000000 0.000000 
0.239317 0.845511 0.271477 4.862708 30.672160 34.392933 7.358254 -12.465912 -58.242563 -12.630713 0.434533 33.740455 10.882311 23.874388 -13.655754 0.000000 0.000000 0.000000 -8.050467 -4.078863 -36.406549 -1.332875 -5.350980 46.980377 -17.012623 -26.564055 33.753958 0.000000 0.000000 0.000000 -18.016896 -8.495771 82.796496 0.245279 1.075874 -31.207609 19.665350 26.835292 27.465155 0.586765 5.637859 -35.591190 0.000000 0.000000 0.000000 -3.646804 -24.144294 5.002295 -27.009346 -35.382473 1.271361 69.694135 -50.039384 -42.266807 0.000000 0.000000 0.000000 -17.291068 7.132773 -1.092181 50.007263 46.049373 24.201760 -51.706272 34.876278 -9.539483 0.000000 0.000000 0.000000 
0.314635 0.841245 0.361674 4.645848 29.064469 32.893849 1.168792 -10.961447 -48.395067 -8.589016 -0.898360 29.960095 11.561188 23.612385 -17.264922 0.000000 0.000000 0.000000 -8.811229 -5.856769 -43.422848 -0.347672 -7.695296 59.911951 -15.325271 -26.272014 30.684626 0.000000 0.000000 0.000000 -18.039910 -7.669516 85.164360 1.711312 0.910019 -32.460203 21.809606 27.726376 29.967350 5.771534 3.921077 -35.598971 0.000000 0.000000 0.000000 0.309016 -24.405225 5.930851 -14.954733 -34.574701 -1.752639 77.507761 -39.889853 -39.958283 0.000000 0.000000 0.000000 -10.648601 10.123340 1.796441 48.667300 42.523309 19.101051 -47.103706 32.177519 -7.243703 0.000000 0.000000 0.000000 
0.395205 0.838811 0.458080 3.624607 27.657593 30.326215 -3.644782 -8.320292 -37.746666 -5.926851 -1.689906 28.313619 12.271204 23.717541 -17.397452 0.000000 0.000000 0.000000 -4.764590 -5.267528 -50.954286 2.893992 -9.554959 64.686492 -13.710687 -28.350279 10.048889 0.000000 0.000000 0.000000 -17.267579 -7.536114 87.828808 3.197266 0.693834 -32.077610 23.251330 29.406172 30.627989 8.572917 3.206793 -36.366062 0.000000 0.000000 0.000000 -4.441132 -24.807771 4.910507 -1.546078 -30.420007 -4.101040 80.509666 -33.823406 -34.562251 0.000000 0.000000 0.000000 4.820185 11.636657 8.532160 35.484405 44.334318 10.133145 -40.746031 29.316144 -5.482411 0.000000 0.000000 0.000000 
0.477777 0.837173 0.556206 5.864976 24.305112 28.682035 -7.573005 -6.245431 -29.531299 -6.695105 -1.893623 32.277769 1.607436 3.849468 -0.612056 0.000000 0.000000 0.000000 -6.114904 -6.274790 -56.359319 11.991387 -13.473427 59.307007 -9.276963 -22.628865 -8.548878 0.000000 0.000000 0.000000 -12.758173 -10.232975 90.726144 5.225656 0.548760 -33.363199 22.349738 31.222347 25.767956 16.402236 -0.342478 -33.910050 0.000000 0.000000 0.000000 -11.732032 -26.855983 4.137805 0.225276 -30.644155 -4.074935 73.060496 -42.445773 -34.078093 0.000000 0.000000 0.000000 19.533055 9.534507 13.937559 20.012320 36.290624 0.232527 -31.870259 29.608103 -4.726445 0.000000 0.000000 0.000000 
0.556479 0.833791 0.652931 5.794732 18.353064 23.487581 -4.187026 -4.424530 -26.930298 -17.011997 2.188408 43.493331 -10.792056 -0.767517 31.743230 0.000000 0.000000 0.000000 -2.409638 -2.402213 -60.605196 15.551044 -12.956735 56.413303 -10.051170 -23.749380 -2.438852 0.000000 0.000000 0.000000 -10.002406 -9.165387 96.020463 5.546617 0.844417 -37.670685 22.437233 28.562989 23.459057 14.894675 -0.268671 -35.005479 0.000000 0.000000 0.000000 -11.761846 -21.502184 2.881474 -5.036930 -33.999004 -2.676721 74.068861 -41.717947 -34.309608 0.000000 0.000000 0.000000 24.232445 11.559306 15.598844 13.776500 30.048199 -1.767652 -29.590295 27.170974 -4.429064 0.000000 0.000000 0.000000 
0.626788 0.830311 0.748295 9.811108 12.197850 20.669054 3.417374 -3.947670 -34.837281 -30.337549 13.995437 61.121977 -15.516632 -5.202387 38.372867 0.000000 0.000000 0.000000 -3.569224 -0.550847 -58.690352 16.045190 -11.290309 53.781926 -10.954332 -25.477669 2.106195 0.000000 0.000000 0.000000 -4.003805 -11.758484 98.956769 6.723642 0.792590 -39.081026 13.366773 23.429173 14.842639 12.149983 -0.550626 -30.887532 0.000000 0.000000 0.000000 -16.100543 -16.416276 1.512050 -8.481126 -33.861015 -0.909005 63.622133 -48.615162 -31.427627 0.000000 0.000000 0.000000 29.304289 12.070337 14.826559 3.873222 27.735758 -2.473687 -25.170280 21.258878 -3.115153 0.000000 0.000000 0.000000 
0.688314 0.841199 0.844085 16.010634 5.646212 13.649265 15.394055 -0.115867 -40.819861 -31.613160 26.688287 80.285398 -18.878886 -10.117113 37.039337 0.000000 0.000000 0.000000 -9.446420 -0.607581 -48.232086 14.843495 -8.957105 52.948863 -10.434106 -25.172342 -0.010661 0.000000 0.000000 0.000000 3.390996 -15.803293 103.306405 1.032017 1.362143 -44.886178 7.103000 9.470516 9.484521 6.889279 -1.836295 -18.959271 0.000000 0.000000 0.000000 -26.376218 -14.493074 4.037049 -3.503300 -26.657912 -1.315295 55.108982 -50.956364 -25.329153 0.000000 0.000000 0.000000 29.026816 12.598695 9.186449 -1.320889 20.858545 -1.777561 -28.391260 29.193056 -5.688469 0.000000 0.000000 0.000000 
0.741696 0.862078 0.937333 27.352153 3.095513 8.383126 26.546770 4.927910 -46.884079 -22.974595 28.153531 97.753906 -20.396061 -15.919406 30.158032 0.000000 0.000000 0.000000 -22.530499 -3.958477 -38.410242 17.402981 -9.489289 50.997327 -11.844760 -29.989394 -5.735582 0.000000 0.000000 0.000000 17.905383 -30.182457 101.102378 -11.194413 1.780951 -44.301959 -6.658613 -14.721185 4.599656 -3.257809 2.252807 -5.652854 0.000000 0.000000 0.000000 -37.694463 -8.375184 9.916548 8.226843 -19.708857 -1.742948 48.274260 -47.437177 -20.100223 0.000000 0.000000 0.000000 22.548068 16.039877 2.667477 -4.710728 21.844225 -2.132385 -32.599577 32.877041 -8.240668 0.000000 0.000000 0.000000 
0.787264 0.901669 1.025000 40.221621 3.712609 -0.770713 34.068662 8.606773 -45.566768 -16.072484 18.890087 93.329880 -10.323188 -19.878010 3.097312 0.000000 0.000000 0.000000 -37.607967 -4.047924 -21.816681 20.075226 -8.957192 42.471916 -11.191189 -28.896089 -7.497421 0.000000 0.000000 0.000000 39.798533 -42.946621 86.596110 -12.558972 2.126285 -39.149247 -28.570339 -36.042345 5.742745 1.378646 7.487181 27.956442 0.000000 0.000000 0.000000 -55.282291 -2.928402 18.463101 20.512144 -8.777439 1.601123 41.381767 -36.138110 -16.632747 0.000000 0.000000 0.000000 16.026158 17.795332 -1.037983 -13.659844 19.783513 -4.511122 -40.057330 44.560243 -15.169779 0.000000 0.000000 0.000000 
0.829260 0.939336 1.104310 48.988360 5.936878 -6.191295 39.437899 10.224453 -42.186963 -11.621651 8.909652 68.506751 3.730217 -33.804385 -38.921756 0.000000 0.000000 0.000000 -46.844737 -2.527621 -13.539004 27.514604 -10.114551 31.878041 -12.726135 -40.138569 -19.765975 0.000000 0.000000 0.000000 70.314275 -44.606194 55.989569 -21.957425 4.698396 -29.025522 -57.120640 -54.608088 28.075411 16.741242 8.698168 56.402327 0.000000 0.000000 0.000000 -67.573891 2.526501 32.372082 26.145110 -2.288671 4.705577 30.443419 -15.819632 -8.535646 0.000000 0.000000 0.000000 7.275071 18.193241 -2.728275 -21.331207 22.476498 -9.652818 -53.953291 48.126545 -25.673053 0.000000 0.000000 0.000000 
